
<svg
    display="none"
    width="0"
    height="0"
    version="1.1"
    xmlns="http://www.w3.org/2000/svg"
    xmlns:xlink="http://www.w3.org/1999/xlink"
>
<defs>
    <symbol id="box">
        <path d="M6.29981 8.40016V14H3.4999C2.94296 14 2.40883 13.7788 2.01502 13.3849C1.6212 12.9911 1.39996 12.457 1.39996 11.9001V9.10014C1.39996 8.9145 1.47371 8.73645 1.60498 8.60518C1.73625 8.47391 1.91429 8.40016 2.09994 8.40016H6.29981ZM11.8997 8.40016C12.0853 8.40016 12.2633 8.47391 12.3946 8.60518C12.5259 8.73645 12.5996 8.9145 12.5996 9.10014V11.9001C12.5996 12.457 12.3784 12.9911 11.9846 13.3849C11.5908 13.7788 11.0566 14 10.4997 14H7.69977V8.40016H11.8997ZM10.1497 0.000410814C10.563 0.000325502 10.9697 0.104824 11.3318 0.304179C11.6939 0.503534 11.9997 0.791264 12.2206 1.14058C12.4416 1.4899 12.5706 1.88945 12.5956 2.30204C12.6207 2.71463 12.5409 3.12685 12.3637 3.50031H12.5996C12.9709 3.50031 13.327 3.6478 13.5896 3.91035C13.8521 4.17289 13.9996 4.52897 13.9996 4.90027V5.60025C13.9996 5.97154 13.8521 6.32762 13.5896 6.59017C13.327 6.85271 12.9709 7.0002 12.5996 7.0002H7.69977V3.50031H6.29981V7.0002H1.39996C1.02867 7.0002 0.672582 6.85271 0.410038 6.59017C0.147495 6.32762 0 5.97154 0 5.60025V4.90027C0 4.52897 0.147495 4.17289 0.410038 3.91035C0.672582 3.6478 1.02867 3.50031 1.39996 3.50031H1.63585C1.48038 3.17213 1.3998 2.81349 1.39996 2.45034C1.39996 1.09728 2.49683 0.000410814 3.83799 0.000410814C5.06645 -0.0205886 6.15632 0.764788 6.9046 2.05415L6.99979 2.22425C7.72287 0.884485 8.79174 0.0445096 10.0034 0.00181084L10.1497 0.000410814ZM3.84989 1.40037C3.57142 1.40037 3.30435 1.51099 3.10745 1.7079C2.91054 1.90481 2.79992 2.17187 2.79992 2.45034C2.79992 2.72881 2.91054 2.99587 3.10745 3.19278C3.30435 3.38969 3.57142 3.50031 3.84989 3.50031H6.04992C5.53124 2.16685 4.68566 1.38637 3.84989 1.40037ZM10.1378 1.40037C9.31183 1.38637 8.46835 2.16755 7.94967 3.50031H10.1497C10.4282 3.49873 10.6946 3.3866 10.8904 3.18857C11.0862 2.99055 11.1953 2.72286 11.1937 2.44439C11.1921 2.16592 11.08 1.89948 10.882 1.70369C10.684 1.5079 10.4163 1.39879 10.1378 1.40037Z" fill="white"/>
    </symbol>
    <symbol id="triangle">
        <path d="M6 4L0 8L3.49691e-07 -2.62268e-07L6 4Z" fill="#EB5757"/>
    </symbol>
    <symbol id="fb">
        <path d="M25.1999 8.86664H28.3333V3.56664C26.8162 3.40888 25.2919 3.33099 23.7666 3.3333C19.2333 3.3333 16.1333 6.09997 16.1333 11.1666V15.5333H11.0166V21.4666H16.1333V36.6666H22.2666V21.4666H27.3666L28.1333 15.5333H22.2666V11.75C22.2666 9.99997 22.7333 8.86664 25.1999 8.86664Z" fill="white"/>
    </symbol>
    <symbol id="instagram">
        <path d="M28.8999 9.10004C28.5044 9.10004 28.1177 9.21734 27.7888 9.4371C27.4599 9.65687 27.2035 9.96922 27.0522 10.3347C26.9008 10.7001 26.8612 11.1023 26.9383 11.4902C27.0155 11.8782 27.206 12.2345 27.4857 12.5143C27.7654 12.794 28.1218 12.9844 28.5097 13.0616C28.8977 13.1388 29.2998 13.0992 29.6653 12.9478C30.0307 12.7964 30.3431 12.5401 30.5629 12.2112C30.7826 11.8823 30.8999 11.4956 30.8999 11.1C30.8999 10.5696 30.6892 10.0609 30.3141 9.68583C29.9391 9.31075 29.4304 9.10004 28.8999 9.10004ZM36.5666 13.1334C36.5342 11.7505 36.2752 10.3824 35.7999 9.08337C35.3761 7.97193 34.7166 6.96551 33.8666 6.13337C33.0413 5.27908 32.0325 4.62367 30.9166 4.21671C29.621 3.72698 28.2513 3.46206 26.8666 3.43337C25.0999 3.33337 24.5333 3.33337 19.9999 3.33337C15.4666 3.33337 14.8999 3.33337 13.1333 3.43337C11.7485 3.46206 10.3788 3.72698 9.08325 4.21671C7.96938 4.62779 6.96148 5.28264 6.13325 6.13337C5.27896 6.95867 4.62355 7.96744 4.21659 9.08337C3.72685 10.3789 3.46194 11.7486 3.43325 13.1334C3.33325 14.9 3.33325 15.4667 3.33325 20C3.33325 24.5334 3.33325 25.1 3.43325 26.8667C3.46194 28.2515 3.72685 29.6211 4.21659 30.9167C4.62355 32.0326 5.27896 33.0414 6.13325 33.8667C6.96148 34.7174 7.96938 35.3723 9.08325 35.7834C10.3788 36.2731 11.7485 36.538 13.1333 36.5667C14.8999 36.6667 15.4666 36.6667 19.9999 36.6667C24.5333 36.6667 25.0999 36.6667 26.8666 36.5667C28.2513 36.538 29.621 36.2731 30.9166 35.7834C32.0325 35.3764 33.0413 34.721 33.8666 33.8667C34.7203 33.0377 35.3805 32.0304 35.7999 30.9167C36.2752 29.6177 36.5342 28.2495 36.5666 26.8667C36.5666 25.1 36.6666 24.5334 36.6666 20C36.6666 15.4667 36.6666 14.9 36.5666 13.1334ZM33.5666 26.6667C33.5545 27.7247 33.3628 28.7729 32.9999 29.7667C32.7338 30.492 32.3064 31.1474 31.7499 31.6834C31.2093 32.2342 30.5553 32.6608 29.8333 32.9334C28.8394 33.2963 27.7912 33.4879 26.7333 33.5C25.0666 33.5834 24.4499 33.6 20.0666 33.6C15.6833 33.6 15.0666 33.6 13.3999 33.5C12.3014 33.5206 11.2076 33.3515 10.1666 33C9.47622 32.7135 8.85218 32.288 8.33325 31.75C7.78007 31.2146 7.35799 30.5587 7.09992 29.8334C6.69301 28.8253 6.46732 27.7533 6.43325 26.6667C6.43325 25 6.33325 24.3834 6.33325 20C6.33325 15.6167 6.33325 15 6.43325 13.3334C6.44072 12.2518 6.63817 11.1799 7.01659 10.1667C7.31 9.46323 7.76036 8.83614 8.33325 8.33337C8.83961 7.76032 9.4654 7.3052 10.1666 7.00004C11.1825 6.63345 12.2532 6.44184 13.3333 6.43337C14.9999 6.43337 15.6166 6.33337 19.9999 6.33337C24.3833 6.33337 24.9999 6.33337 26.6666 6.43337C27.7245 6.44551 28.7728 6.63712 29.7666 7.00004C30.524 7.28113 31.2037 7.73812 31.7499 8.33337C32.2961 8.84534 32.7229 9.47126 32.9999 10.1667C33.3703 11.1816 33.5621 12.253 33.5666 13.3334C33.6499 15 33.6666 15.6167 33.6666 20C33.6666 24.3834 33.6499 25 33.5666 26.6667ZM19.9999 11.45C18.3096 11.4533 16.6582 11.9576 15.2543 12.8991C13.8505 13.8406 12.7572 15.177 12.1126 16.7396C11.4681 18.3022 11.3011 20.0208 11.6329 21.6783C11.9647 23.3357 12.7803 24.8576 13.9767 26.0517C15.1731 27.2457 16.6966 28.0584 18.3547 28.387C20.0128 28.7155 21.731 28.5452 23.2924 27.8976C24.8537 27.25 26.188 26.1541 27.1268 24.7484C28.0656 23.3428 28.5666 21.6904 28.5666 20C28.5688 18.8752 28.3486 17.7611 27.9187 16.7216C27.4887 15.6822 26.8575 14.7381 26.0614 13.9435C25.2652 13.1489 24.3198 12.5195 23.2796 12.0916C22.2393 11.6637 21.1247 11.4456 19.9999 11.45ZM19.9999 25.55C18.9022 25.55 17.8292 25.2245 16.9165 24.6147C16.0038 24.0049 15.2925 23.1381 14.8724 22.1239C14.4523 21.1098 14.3424 19.9939 14.5566 18.9173C14.7707 17.8407 15.2993 16.8518 16.0755 16.0756C16.8517 15.2994 17.8406 14.7708 18.9172 14.5567C19.9938 14.3425 21.1097 14.4524 22.1238 14.8725C23.1379 15.2926 24.0047 16.0039 24.6146 16.9166C25.2244 17.8293 25.5499 18.9024 25.5499 20C25.5499 20.7289 25.4064 21.4506 25.1275 22.1239C24.8485 22.7973 24.4397 23.4091 23.9244 23.9245C23.409 24.4398 22.7972 24.8487 22.1238 25.1276C21.4505 25.4065 20.7288 25.55 19.9999 25.55Z" fill="white"/>
    </symbol>
    <symbol id="tiktok">
        <path d="M21.665 3H25.7896C26.0896 4.48943 26.9145 6.36841 28.3622 8.23281C29.7788 10.0597 31.6577 11.3325 34.1637 11.3325V15.4987C30.512 15.4987 27.7686 13.8031 25.8313 11.6887V25.9144C25.8313 27.9744 25.2204 29.9881 24.0759 31.701C22.9314 33.4138 21.3047 34.7488 19.4015 35.5372C17.4983 36.3255 15.4041 36.5318 13.3836 36.1299C11.3632 35.728 9.50732 34.736 8.05067 33.2793C6.59402 31.8227 5.60203 29.9668 5.20014 27.9464C4.79825 25.9259 5.00451 23.8317 5.79285 21.9285C6.58118 20.0253 7.91618 18.3986 9.62902 17.2541C11.3419 16.1096 13.3556 15.4987 15.4156 15.4987V19.665C14.1796 19.665 12.9714 20.0315 11.9437 20.7182C10.916 21.4049 10.115 22.3809 9.64196 23.5228C9.16896 24.6648 9.0452 25.9213 9.28633 27.1336C9.52747 28.3458 10.1227 29.4594 10.9967 30.3333C11.8706 31.2073 12.9842 31.8025 14.1964 32.0437C15.4087 32.2848 16.6652 32.161 17.8072 31.688C18.9491 31.215 19.9251 30.414 20.6118 29.3863C21.2985 28.3586 21.665 27.1504 21.665 25.9144V3Z" fill="white"/>
    </symbol>
    <symbol id="usp1">
        <path d="M32.5 0H8.5C4.08172 0 0.5 3.58172 0.5 8V32C0.5 36.4183 4.08172 40 8.5 40H32.5C36.9183 40 40.5 36.4183 40.5 32V8C40.5 3.58172 36.9183 0 32.5 0Z" fill="white"/>
        <path d="M8.00049 15.5964C8.70235 15.5964 9.25099 16.1451 9.25099 16.8469C9.25099 17.5488 8.70235 18.0974 8.00049 18.0974C7.29864 18.0974 6.75 17.5488 6.75 16.8469C6.75 16.1451 7.29864 15.5964 8.00049 15.5964Z" fill="#74829C"/>
        <path d="M31.7505 20.5989C32.7984 20.5989 33.6485 21.449 33.6485 22.4969C33.6485 23.5447 32.7984 24.3948 31.7505 24.3948C30.7027 24.3948 29.8526 23.5447 29.8526 22.4969C29.8476 21.449 30.6978 20.5989 31.7505 20.5989Z" fill="#74829C"/>
        <path d="M25.596 26.7473C26.0458 27.197 26.6982 27.4985 27.3457 27.4985C26.6439 27.4985 26.0458 27.8001 25.596 28.2498C25.1462 28.6996 24.8447 29.352 24.8447 29.9995C24.8447 28.6008 23.7425 27.4985 22.3438 27.4985C23.0456 27.4985 23.6437 27.197 24.0935 26.7473C24.5432 26.2975 24.8447 25.645 24.8447 24.9976C24.8991 25.645 25.1462 26.2975 25.596 26.7473Z" fill="#FFD24D"/>
        <path d="M18.0985 7.9997C18.5482 8.44949 19.2007 8.75099 19.8482 8.75099C19.1463 8.75099 18.5482 9.05249 18.0985 9.50227C17.6487 9.95206 17.3472 10.6045 17.3472 11.252C17.3472 9.8532 16.245 8.75099 14.8462 8.75099C15.548 8.75099 16.1461 8.44949 16.5959 7.9997C17.0457 7.54992 17.3472 6.89749 17.3472 6.25C17.3966 6.89749 17.6487 7.54498 18.0985 7.9997Z" fill="#FFD24D"/>
        <path d="M28.4974 9.79883C27.3952 8.69661 25.596 8.69661 24.4988 9.79883L22.0472 12.2504L8.14844 26.1492C7.04622 27.2514 7.04622 29.0505 8.14844 30.1478C9.25065 31.25 11.0498 31.25 12.1471 30.1478L26.0458 16.249L28.4974 13.7974C29.046 13.2488 29.2981 12.547 29.2981 11.7957C29.2981 11.0988 29.046 10.3475 28.4974 9.79883Z" fill="#3C3B3D"/>
        <path d="M24.0359 14.2146C25.1445 15.3095 25.1516 17.0971 24.0518 18.2008L12.1471 30.1479C11.0448 31.2501 9.24571 31.2501 8.14844 30.1479C7.04622 29.0457 7.04622 27.2465 8.14844 26.1493L20.0708 14.2269C21.1643 13.1334 22.9356 13.1279 24.0359 14.2146V14.2146Z" fill="#73665C"/>
        <path d="M28.498 9.79894C29.0467 10.3476 29.2987 11.0494 29.2987 11.8007C29.2987 12.5026 29.0467 13.2489 28.498 13.8025L28.0458 14.2548C26.9416 15.3589 25.1513 15.3589 24.0472 14.2548V14.2548C22.943 13.1506 22.943 11.3603 24.0472 10.2561L24.4994 9.80389C25.5967 8.69673 27.4008 8.69673 28.498 9.79894Z" fill="#3C3B3D"/>
        <path d="M29.8965 31.2451C30.2474 31.2451 30.544 31.5466 30.544 31.8926C30.544 32.2435 30.2425 32.5401 29.8965 32.5401C29.5505 32.5401 29.249 32.2386 29.249 31.8926C29.249 31.4972 29.5505 31.2451 29.8965 31.2451Z" fill="#74829C"/>
        <path d="M27.4004 18.7451C27.7513 18.7451 28.0529 19.0466 28.0529 19.3926C28.0529 19.7386 27.7513 20.0401 27.4004 20.0401C27.0495 20.0401 26.7529 19.7386 26.7529 19.3926C26.7529 19.0466 27.0495 18.7451 27.4004 18.7451Z" fill="#74829C"/>
        <path d="M16.7496 30.5977C17.1005 30.5977 17.402 30.8992 17.402 31.2451C17.402 31.5911 17.1005 31.8926 16.7496 31.8926C16.4794 31.8926 16.2385 31.7139 16.1419 31.4737C16.0838 31.329 16.0999 31.1636 16.1624 31.0208C16.2683 30.7785 16.4778 30.5977 16.7496 30.5977Z" fill="#74829C"/>
        <path d="M12.9976 16.2488C13.3485 16.2488 13.65 16.5503 13.65 16.9012C13.65 17.2521 13.3485 17.5487 12.9976 17.5487C12.6467 17.5487 12.3501 17.2472 12.3501 16.9012C12.3995 16.4959 12.6467 16.2488 12.9976 16.2488Z" fill="#74829C"/>
        <path d="M10.4962 9.99658C10.8471 9.99658 11.1486 10.2981 11.1486 10.6441C11.1486 10.995 10.8471 11.2965 10.4962 11.2965C10.1453 11.2965 9.84375 10.995 9.84375 10.6441C9.84869 10.2981 10.1502 9.99658 10.4962 9.99658Z" fill="#74829C"/>
    </symbol>
    <symbol id="usp2">
        <path d="M32.5 0H8.5C4.08172 0 0.5 3.58172 0.5 8V32C0.5 36.4183 4.08172 40 8.5 40H32.5C36.9183 40 40.5 36.4183 40.5 32V8C40.5 3.58172 36.9183 0 32.5 0Z" fill="white"/>
        <path d="M26.5985 30.65L25.4499 34.05L21.1475 26.6C21.1475 26.6 21.395 26.55 21.7465 26.45C21.8951 26.4 22.1476 26.25 22.2466 26.15C22.2466 26.15 22.2466 26.15 22.3951 26.05C22.4446 26 22.4446 26 22.4446 26C22.7466 25.75 22.8952 25.5 22.8952 25.5C23.0437 25.25 23.3952 25.15 23.6428 25.3C23.8408 25.4 24.0933 25.5 24.3409 25.55C24.9399 25.65 25.4895 25.55 25.9895 25.25C26.0885 25.2 26.1876 25.1 26.2371 25.1C26.2866 25.1 26.2866 25.05 26.3361 25.05L30.0345 31.45L26.5985 30.65Z" fill="#D65B5B"/>
        <path d="M15.0973 30.65L11.6465 31.4L15.3449 25C15.3944 25.05 15.5429 25.15 15.5924 25.2C16.0925 25.5 16.6915 25.65 17.3401 25.55C17.5877 25.5 17.8402 25.4 18.0382 25.3C18.2857 25.15 18.6373 25.25 18.7858 25.5C18.7858 25.5 18.9343 25.75 19.2363 26C19.2363 26 19.7364 26.5 20.5384 26.6L16.236 34.05L15.0973 30.65Z" fill="#D65B5B"/>
        <path d="M34.2476 21.3996C34.8466 21.9996 34.8467 23.1996 34.8467 24.4496C33.6485 24.4496 32.3959 24.4496 31.7968 23.8496C31.4453 23.4996 31.4453 22.9496 31.7968 22.6496C32.0989 22.3496 32.3959 22.3496 32.8464 22.4996C32.6979 22.0496 32.6979 21.7496 32.995 21.4496C33.396 21.0496 33.8961 21.0496 34.2476 21.3996Z" fill="#FF7979"/>
        <path d="M34.3962 7.24976C34.3962 8.44976 34.3962 9.69976 33.7971 10.2998C33.4456 10.6498 32.8961 10.6498 32.599 10.2998C32.297 9.99976 32.297 9.69976 32.4505 9.24976C31.9999 9.39976 31.7029 9.39976 31.4008 9.09976C31.0493 8.74976 31.0493 8.19976 31.4008 7.89976C31.9455 7.24976 33.1981 7.24976 34.3962 7.24976Z" fill="#FF7979"/>
        <path d="M30.0943 14.5C30.7924 14.95 31.1934 15.7 31.1934 16.6C31.1934 17.45 30.7429 18.25 30.0943 18.7C29.8467 18.85 29.7428 19.2 29.8962 19.45C30.2478 20.15 30.2478 21.05 29.8467 21.8C29.3962 22.55 28.6486 23 27.8465 23.05C27.5445 23.05 27.297 23.3 27.297 23.6C27.1979 25.05 25.8958 26.15 24.3957 25.9C24.2741 25.873 24.1561 25.8387 24.0419 25.7972C23.5936 25.6342 23.0009 25.7771 22.692 26.1405V26.1405C22.5739 26.2795 22.4179 26.4105 22.2687 26.5154C22.1244 26.6169 21.9076 26.7468 21.5984 26.85C21.1478 27 20.6973 27 20.1973 26.85C19.6047 26.7016 19.2544 26.3576 19.2468 26.3501C19.2465 26.3499 19.2465 26.3499 19.2463 26.3496V26.3496C18.8151 25.9212 18.0168 25.7548 17.4151 25.8417C17.3937 25.8448 17.3721 25.8476 17.3504 25.85C15.8503 26.1 14.5482 25 14.4492 23.55C14.4492 23.25 14.2016 23 13.8996 23C13.0975 22.95 12.3499 22.5 11.8994 21.75C11.4489 21 11.4489 20.1 11.8499 19.4C11.9984 19.15 11.8994 18.8 11.6519 18.65C10.9538 18.2 10.5527 17.45 10.5527 16.55C10.5527 15.7 11.0033 14.9 11.6519 14.5C11.8994 14.35 12.0034 14 11.8499 13.75C11.4984 13.05 11.4984 12.15 11.8994 11.4C12.3499 10.65 13.0975 10.2 13.8996 10.15C14.2016 10.15 14.4492 9.9 14.4492 9.6C14.4987 8.8 14.9492 8.05 15.6968 7.6C16.4444 7.15 17.3455 7.15 18.0485 7.55C18.2961 7.7 18.6476 7.6 18.7961 7.35C19.2467 6.65 19.9943 6.25 20.8953 6.25C21.7964 6.25 22.544 6.7 22.9946 7.35C23.1431 7.6 23.4946 7.7 23.7422 7.55C24.4402 7.2 25.3413 7.2 26.0939 7.6C26.8464 8.05 27.292 8.8 27.3415 9.6C27.3415 9.9 27.5891 10.15 27.8911 10.15C28.6931 10.2 29.4407 10.65 29.8913 11.4C30.3418 12.15 30.3418 13.05 29.9408 13.75C29.7972 14 29.8467 14.35 30.0943 14.5ZM28.1485 16.55C28.1485 12.55 24.9007 9.25 20.8508 9.25C16.8009 9.25 13.5481 12.55 13.5481 16.55C13.5481 20.55 16.7959 23.85 20.8508 23.85C24.8957 23.85 28.1485 20.6 28.1485 16.55Z" fill="#FF7979"/>
        <path d="M20.8452 9.2998C24.8456 9.2998 28.1429 12.5498 28.1429 16.5998C28.1429 20.5998 24.8951 23.8998 20.8452 23.8998C16.7953 23.8998 13.5425 20.5998 13.5425 16.5498C13.5474 12.5498 16.8448 9.2998 20.8452 9.2998ZM22.0978 16.5498C22.0978 15.8498 21.5482 15.2998 20.8501 15.2998C20.1521 15.2998 19.6025 15.8498 19.6025 16.5498C19.6025 17.2498 20.1521 17.7998 20.8501 17.7998C21.5433 17.7998 22.0978 17.2498 22.0978 16.5498Z" fill="#EFF3F6"/>
        <path d="M20.8453 15.2998C21.5434 15.2998 22.0929 15.8498 22.0929 16.5498C22.0929 17.2498 21.5434 17.7998 20.8453 17.7998C20.1472 17.7998 19.5977 17.2498 19.5977 16.5498C19.5977 15.8998 20.1472 15.2998 20.8453 15.2998Z" fill="#EFF3F6"/>
        <path d="M9.89358 23.8996C10.4926 24.4996 10.4926 25.6996 10.4926 26.9496C9.29451 26.9496 8.04191 26.9496 7.44284 26.3496C7.09132 25.9996 7.09132 25.4496 7.44284 25.1496C7.74485 24.8496 8.04191 24.8496 8.49245 24.9996C8.34392 24.5496 8.34392 24.2496 8.64098 23.9496C8.99745 23.5496 9.54701 23.5496 9.89358 23.8996Z" fill="#FF7979"/>
        <path d="M7.99768 32.3999C8.69576 32.3999 9.24533 32.9499 9.24533 33.6499C9.24533 34.3499 8.69576 34.8999 7.99768 34.8999C7.29959 34.8999 6.75003 34.3499 6.75003 33.6499C6.74508 32.9499 7.29464 32.3999 7.99768 32.3999Z" fill="#D65B5B"/>
        <path d="M22.0979 14.6999C21.7464 14.6999 21.4493 14.3999 21.4493 14.0499V13.3314C21.4493 13.2279 21.324 13.1764 21.2513 13.2499V13.2499C21.0037 13.4999 20.6027 13.4999 20.3502 13.2499V13.2499C20.2774 13.1764 20.1521 13.2279 20.1521 13.3314V14.0499C20.1521 14.3999 19.8501 14.6999 19.5036 14.6999C19.157 14.6999 18.855 14.3999 18.855 14.0499V11.5499C18.855 11.2999 19.0035 11.0499 19.256 10.9499C19.5036 10.8499 19.7561 10.8999 19.9541 11.0999V11.0999C20.3974 11.5421 21.1149 11.5421 21.5582 11.0999V11.0999C21.7563 10.8999 22.0088 10.8499 22.2563 10.9499C22.5039 11.0499 22.6573 11.2499 22.6573 11.5499V13.674C22.6573 13.9236 22.7327 14.1965 22.6087 14.4132C22.5107 14.5844 22.3129 14.6999 22.0979 14.6999Z" fill="#32313F"/>
        <path d="M22.0979 22.1999C21.7464 22.1999 21.4493 21.8999 21.4493 21.5499V20.8314C21.4493 20.7279 21.324 20.6764 21.2513 20.7499V20.7499C21.0037 20.9999 20.6027 20.9999 20.3502 20.7499V20.7499C20.2774 20.6764 20.1521 20.7279 20.1521 20.8314V21.5499C20.1521 21.8999 19.8501 22.1999 19.5036 22.1999C19.157 22.1999 18.855 21.8999 18.855 21.5499V19.0499C18.855 18.7999 19.0035 18.5499 19.256 18.4499C19.5036 18.3499 19.7561 18.3999 19.9541 18.5999V18.5999C20.3974 19.0421 21.1149 19.0421 21.5582 18.5999V18.5999C21.7563 18.3999 22.0088 18.3499 22.2563 18.4499C22.5039 18.5499 22.6573 18.7499 22.6573 19.0499V21.174C22.6573 21.4236 22.7327 21.6965 22.6087 21.9132C22.5107 22.0844 22.3129 22.1999 22.0979 22.1999Z" fill="#32313F"/>
        <path d="M20.8455 18.4499C19.7959 18.4499 18.9443 17.5999 18.9443 16.5499C18.9443 15.4999 19.7959 14.6499 20.8455 14.6499C21.8951 14.6499 22.7467 15.4999 22.7467 16.5499C22.7467 17.5999 21.8951 18.4499 20.8455 18.4499ZM20.8455 15.9499C20.494 15.9499 20.1969 16.2499 20.1969 16.5999C20.1969 16.9499 20.4989 17.2499 20.8455 17.2499C21.197 17.2499 21.4941 16.9499 21.4941 16.5999C21.4941 16.1999 21.197 15.9499 20.8455 15.9499Z" fill="#32313F"/>
    </symbol>
    <symbol id="usp3">
        <path d="M32 0H8C3.58172 0 0 3.58172 0 8V32C0 36.4183 3.58172 40 8 40H32C36.4183 40 40 36.4183 40 32V8C40 3.58172 36.4183 0 32 0Z" fill="white"/>
        <path d="M33.7663 11.8945V28.0422C33.7663 29.1444 32.8667 29.9946 31.814 29.9946H23.362C23.0605 29.9946 22.8134 30.044 22.5613 30.1429C22.3092 30.2417 22.0621 30.3949 21.8594 30.5926C21.4591 30.993 20.9104 31.2401 20.3568 31.2401H18.3551C18.0536 31.2401 17.8064 31.1907 17.5544 31.0918C17.3072 30.993 17.0551 30.8398 16.8525 30.6421C16.4521 30.2417 15.9035 29.9896 15.3549 29.9896H6.95234C5.85013 29.9896 5 29.0901 5 28.0373V11.8945H33.7663Z" fill="#EFEBDE"/>
        <path d="M19.3682 10.0457V28.1457C26.1198 26.3466 27.1183 28.4472 31.2157 27.5477V11.8942V9.99626C27.1183 10.9453 26.1198 8.19713 19.3682 10.0457Z" fill="#BEC3C7"/>
        <path d="M19.3682 28.1456V10.0456C12.6166 8.24646 11.6181 10.9452 7.46631 10.0456V11.8941V27.5426C11.6181 28.4471 12.6166 26.3465 19.3682 28.1456Z" fill="#ECF0F1"/>
        <path d="M29.6693 6.29443C30.1685 6.29443 30.6182 6.69479 30.6182 7.24343C30.6182 7.79206 30.2179 8.19242 29.6693 8.19242C29.1206 8.19242 28.7203 7.79206 28.7203 7.24343C28.7153 6.69479 29.17 6.29443 29.6693 6.29443Z" fill="#D7DEED"/>
        <path d="M9.66531 32.5449C10.1645 32.5449 10.6143 32.9453 10.6143 33.4939C10.6143 33.9931 10.2139 34.4429 9.66531 34.4429C9.11667 34.4429 8.71631 34.0425 8.71631 33.4939C8.76574 32.9453 9.1661 32.5449 9.66531 32.5449Z" fill="#D7DEED"/>
        <path d="M12.818 21.3439C13.1449 21.9523 12.5564 22.5454 11.8657 22.5454V22.5454C10.9046 22.5454 10.0835 22.025 9.66379 21.2457C9.33633 20.6376 9.92461 20.0444 10.6152 20.0444V20.0444C11.5796 20.0444 12.3994 20.5647 12.818 21.3439Z" fill="#8FB021"/>
        <path d="M15.6167 15.6458V15.6458C16.3073 15.6458 16.891 16.2412 16.5456 16.8392C16.4277 17.0433 16.2819 17.2295 16.1159 17.3955C15.6661 17.8452 15.0186 18.1467 14.3662 18.1467V18.1467C13.6756 18.1467 13.092 17.5513 13.4374 16.9533C13.5553 16.7492 13.7011 16.563 13.867 16.397C14.3168 15.9473 14.9198 15.6458 15.6167 15.6458Z" fill="#8FB021"/>
        <path d="M15.6167 20.0444V20.0444C16.3073 20.0444 16.891 20.6399 16.5456 21.2379C16.4277 21.442 16.2819 21.6282 16.1159 21.7941C15.6661 22.2439 15.0186 22.5454 14.3662 22.5454V22.5454C13.6756 22.5454 13.092 21.95 13.4374 21.3519C13.5553 21.1478 13.7011 20.9617 13.867 20.7957C14.3168 20.3459 14.9198 20.0444 15.6167 20.0444Z" fill="#A5C63B"/>
        <path d="M12.8078 16.9483C13.1403 17.5536 12.5564 18.1467 11.8657 18.1467V18.1467C10.9046 18.1467 10.0835 17.6264 9.66379 16.847C9.33633 16.2389 9.92461 15.6458 10.6152 15.6458V15.6458C11.5718 15.6458 12.3861 16.1806 12.8078 16.9483Z" fill="#A5C63B"/>
        <path d="M24.3648 11.8945C25.4126 11.8945 26.2628 12.7447 26.2628 13.7925C26.2628 14.8404 25.4126 15.6905 24.3648 15.6905C23.3169 15.6905 22.4668 14.8404 22.4668 13.7925C22.4668 12.7496 23.3169 11.8945 24.3648 11.8945Z" fill="#FFD24D"/>
        <path d="M28.4178 18.147C28.9419 18.147 29.3668 18.5719 29.3668 19.096V19.096C29.3668 19.6201 28.9378 20.0356 28.4232 20.1349C26.6325 20.4806 25.1721 21.7901 24.6116 23.4986C24.3405 24.3247 23.66 25.0469 22.7905 25.0469V25.0469C21.9211 25.0469 21.2163 24.3421 21.2163 23.4727V21.147C21.2163 19.4901 22.5595 18.147 24.2163 18.147H28.4178Z" fill="#65B2FE"/>
        <path d="M29.865 33.4199C29.9469 33.5273 30.0148 33.6599 30.0148 33.795V33.795C30.0148 34.0471 29.8665 34.2942 29.565 34.3931C29.2853 34.4719 29.0056 34.3937 28.8535 34.181C28.7727 34.068 28.7148 33.9289 28.7148 33.7901V33.7901C28.7148 33.5995 28.8031 33.4059 28.9817 33.282C29.0931 33.2048 29.2269 33.1426 29.3623 33.1426V33.1426C29.5548 33.1463 29.7417 33.2581 29.865 33.4199Z" fill="#D7DEED"/>
        <path d="M27.858 22.2835C28.6187 21.8625 29.3672 22.6142 29.3672 23.4836V23.4836C29.3672 24.3408 28.6724 25.0467 27.8152 25.0467V25.0467C26.9409 25.0467 26.2078 24.285 26.6303 23.5196C26.9179 22.9983 27.3419 22.5691 27.858 22.2835Z" fill="#A5C63B"/>
        <path d="M28.4241 20.1345C28.9387 20.035 29.3676 20.4693 29.3676 20.9934V20.9934C29.3676 21.5175 28.9334 21.9279 28.4323 22.0815C27.4324 22.3881 26.6506 23.1752 26.3514 24.1784C26.2053 24.668 25.805 25.0909 25.2941 25.0909V25.0909C24.7838 25.0909 24.361 24.674 24.4518 24.1719C24.8216 22.1279 26.4147 20.5228 28.4241 20.1345Z" fill="#EA7E23"/>
        <path d="M26.1149 32.1661C26.2 32.2751 26.2682 32.4114 26.2682 32.5497V32.5497C26.2682 32.8018 26.1199 33.0489 25.8184 33.1477C25.537 33.227 25.2556 33.1474 25.1041 32.9317C25.0262 32.8207 24.9683 32.6854 24.9683 32.5497V32.5497C24.9683 32.3553 25.0564 32.1639 25.2349 32.0412C25.3465 31.9644 25.4803 31.9022 25.6157 31.9022V31.9022C25.8031 31.8985 25.9905 32.0068 26.1149 32.1661Z" fill="#D7DEED"/>
        <path d="M19.8574 6.51724C19.9478 6.62183 20.0157 6.75922 20.0157 6.89749V6.89749C20.0157 7.14957 19.8675 7.3967 19.566 7.49555C19.2845 7.57483 19.0031 7.49517 18.8517 7.27951C18.7737 7.16847 18.7158 7.03318 18.7158 6.89749V6.89749C18.7158 6.68254 18.8236 6.47119 19.0423 6.3523C19.1205 6.30982 19.2119 6.29056 19.2969 6.2645V6.2645C19.3447 6.24988 19.3932 6.25347 19.4414 6.26635C19.5978 6.30809 19.7499 6.39298 19.8574 6.51724Z" fill="#D7DEED"/>
        <path d="M14.2346 32.1562C14.3145 32.2702 14.3663 32.4105 14.3663 32.5497V32.5497C14.3663 32.8018 14.218 33.0489 13.9165 33.1477C13.6351 33.227 13.3537 33.1474 13.2023 32.9317C13.1243 32.8207 13.0664 32.6854 13.0664 32.5497V32.5497C13.0664 32.3553 13.1545 32.1639 13.3331 32.0412C13.4447 31.9644 13.5784 31.9022 13.7139 31.9022V31.9022C13.9333 31.8986 14.1266 32.0023 14.2346 32.1562Z" fill="#D7DEED"/>
        <path d="M13.6168 12.1678C13.6996 12.2745 13.7682 12.4069 13.7682 12.542V12.542C13.7682 12.7941 13.6199 13.0412 13.3184 13.1401C13.037 13.2194 12.7556 13.1397 12.6041 12.924C12.5262 12.813 12.4683 12.6777 12.4683 12.542V12.542C12.4683 12.3477 12.5564 12.1563 12.7349 12.0335C12.8465 11.9567 12.9803 11.8945 13.1157 11.8945V11.8945C13.304 11.8945 13.4923 12.0076 13.6168 12.1678Z" fill="#60534A"/>
        <path d="M9.2387 7.16074C9.31558 7.27285 9.36926 7.40882 9.36926 7.54477V7.54477C9.36926 7.79684 9.22098 8.04397 8.91947 8.14283C8.63977 8.22162 8.36006 8.14341 8.20799 7.93072C8.12722 7.81775 8.06934 7.67871 8.06934 7.53982V7.53982C8.06934 7.34693 8.15616 7.15693 8.33203 7.03406C8.44569 6.95464 8.58311 6.89233 8.72177 6.89233V6.89233C8.93976 6.89597 9.13105 7.00376 9.2387 7.16074Z" fill="#D7DEED"/>
        <path d="M13.1157 25.0465C12.7648 25.0465 12.4683 24.745 12.4683 24.3941V14.3951C12.4683 14.0442 12.7698 13.7427 13.1157 13.7427C13.4617 13.7427 13.7682 14.0442 13.7682 14.3951V24.3941C13.7682 24.745 13.4667 25.0465 13.1157 25.0465Z" fill="#73665C"/>
        <path d="M15.6163 25.0471H10.6143C10.2634 25.0471 9.96191 24.7455 9.96191 24.3946C9.96191 24.0437 10.2634 23.7422 10.6143 23.7422H15.6163C15.9673 23.7422 16.2638 24.0437 16.2638 24.3946C16.2638 24.7455 15.9673 25.0471 15.6163 25.0471Z" fill="#60534A"/>
    </symbol>
    <symbol id="usp4">
        <path d="M32 0H8C3.58172 0 0 3.58172 0 8V32C0 36.4183 3.58172 40 8 40H32C36.4183 40 40 36.4183 40 32V8C40 3.58172 36.4183 0 32 0Z" fill="white"/>
        <path d="M29.4336 15.6465C29.0827 15.6465 28.7861 15.345 28.7861 14.9941V7.50101C28.7861 7.15008 29.0876 6.85352 29.4336 6.85352C29.7846 6.85352 30.0861 7.15502 30.0861 7.50101V14.999C30.0366 15.35 29.7846 15.6465 29.4336 15.6465Z" fill="#60534A"/>
        <path d="M29.4341 14.9988H29.2856C27.6288 14.9988 26.2856 16.3419 26.2856 17.9988V31.2453C26.2856 32.6266 27.4054 33.7463 28.7866 33.7463V33.7463H29.5332C31.19 33.7463 32.5332 32.4032 32.5332 30.7463V18.1473V17.9988C32.5332 16.3419 31.19 14.9988 29.5332 14.9988H29.4341Z" fill="#EF727A"/>
        <path d="M16.9336 31.2453C16.9336 32.6265 18.0533 33.7463 19.4346 33.7463V33.7463H20.1861C21.8429 33.7463 23.1861 32.4031 23.1861 30.7463V23.7472V23.6482C23.1861 21.9913 21.8429 20.6482 20.1861 20.6482H19.9336C18.2767 20.6482 16.9336 21.9913 16.9336 23.6482V31.2453Z" fill="#EF727A"/>
        <path d="M7.5332 31.2455C7.5332 32.6267 8.65293 33.7465 10.0342 33.7465V33.7465H10.7857C12.4425 33.7465 13.7857 32.4033 13.7857 30.7465V28.7494V28.6504C13.7857 26.9935 12.4425 25.6504 10.7857 25.6504H10.5332C8.87635 25.6504 7.5332 26.9935 7.5332 28.6504V31.2455Z" fill="#EF727A"/>
        <path d="M13.7852 28.7493H10.0337V33.7512H13.7852V28.7493Z" fill="#DA5359"/>
        <path d="M23.1856 23.7476H19.4341V33.7466H23.1856V23.7476Z" fill="#DA5359"/>
        <path d="M32.5376 18.1475H28.7861V33.7959H32.5376V18.1475Z" fill="#DA5359"/>
        <path d="M32.498 15V18.1485H28.7515V33.7475H26.2505V15H29.399H32.498Z" fill="#EF727A"/>
        <path d="M23.1861 20.6484V23.7475H19.4346V33.7465H16.9336V20.6484H23.1861Z" fill="#EF727A"/>
        <path d="M13.7852 25.6506V28.7497H10.0337V33.7467H7.53271V25.6506H13.7852Z" fill="#EF727A"/>
        <path d="M31.9346 5V5C32.6252 5 33.2088 5.59543 32.8634 6.19347C32.7455 6.39758 32.5998 6.58374 32.4338 6.7497C31.984 7.19949 31.3316 7.50099 30.6841 7.50099V7.50099C29.9935 7.50099 29.4098 6.90556 29.7552 6.30752C29.8731 6.10341 30.0189 5.91725 30.1849 5.75129C30.6346 5.3015 31.2327 5 31.9346 5Z" fill="#70993F"/>
        <path d="M29.1113 11.3044C29.4563 11.9027 28.8738 12.4978 28.1831 12.4978V12.4978C27.4813 12.4978 26.8832 12.1963 26.4334 11.7465C26.2709 11.584 26.1277 11.3949 26.0111 11.1892C25.6705 10.5884 26.242 9.99683 26.9326 9.99683V9.99683C27.6345 9.99683 28.2325 10.2983 28.6823 10.7481C28.848 10.9138 28.9935 11.1002 29.1113 11.3044Z" fill="#70993F"/>
        <path d="M31.9346 9.99683V9.99683C32.6252 9.99683 33.2088 10.5923 32.8634 11.1903C32.7455 11.3944 32.5998 11.5806 32.4338 11.7465C31.984 12.1963 31.3316 12.4978 30.6841 12.4978V12.4978C29.9935 12.4978 29.4098 11.9024 29.7552 11.3043C29.8731 11.1002 30.0189 10.9141 30.1849 10.7481C30.6346 10.2983 31.2327 9.99683 31.9346 9.99683Z" fill="#80AF52"/>
        <path d="M29.112 6.3075C29.4574 6.90554 28.8738 7.50099 28.1831 7.50099V7.50099C27.4813 7.50099 26.8832 7.19949 26.4334 6.7497C26.2709 6.58714 26.1277 6.3981 26.0111 6.19238C25.6705 5.59154 26.242 5 26.9326 5V5C27.6345 5 28.2325 5.3015 28.6823 5.75129C28.8483 5.91725 28.9941 6.1034 29.112 6.3075Z" fill="#80AF52"/>
        <path d="M23.4827 13.7485C23.9819 13.7485 24.4317 14.1489 24.4317 14.6975C24.4317 15.2462 24.0313 15.6465 23.4827 15.6465C22.934 15.6465 22.5337 15.1967 22.5337 14.6975C22.5337 14.1983 22.9835 13.7485 23.4827 13.7485Z" fill="#74829C"/>
        <path d="M12.5347 20.6484C13.2365 20.6484 13.7852 21.1971 13.7852 21.8989C13.7852 22.6008 13.2365 23.1494 12.5347 23.1494C11.8328 23.1494 11.2842 22.6008 11.2842 21.8989C11.2842 21.1971 11.8328 20.6484 12.5347 20.6484Z" fill="#74829C"/>
        <path d="M23.7843 7.50122C24.1352 7.50122 24.4367 7.80272 24.4367 8.15365C24.4367 8.50458 24.1352 8.80608 23.7843 8.80608C23.5109 8.80608 23.2676 8.62316 23.1733 8.37643C23.1192 8.23474 23.1344 8.07466 23.1928 7.93466C23.2973 7.68395 23.5088 7.50122 23.7843 7.50122Z" fill="#74829C"/>
        <path d="M21.2833 17.5C21.6342 17.5 21.9308 17.8015 21.9308 18.1475C21.9308 18.4935 21.6293 18.7999 21.2833 18.7999C21.011 18.7999 20.7685 18.6185 20.6735 18.3732C20.6179 18.2298 20.6334 18.0672 20.694 17.9259C20.7993 17.6802 21.0097 17.5 21.2833 17.5Z" fill="#74829C"/>
        <path d="M8.18515 21.8987C8.53608 21.8987 8.83756 22.2002 8.83756 22.5511C8.83756 22.902 8.53608 23.2035 8.18515 23.2035C7.83422 23.2035 7.53271 22.902 7.53271 22.5511C7.53271 22.2002 7.83422 21.8987 8.18515 21.8987Z" fill="#74829C"/>
        <path d="M7.53225 14.4009C7.88318 14.4009 8.18469 14.7024 8.18469 15.0533C8.18469 15.4042 7.88318 15.7057 7.53225 15.7057C7.18132 15.7057 6.88477 15.4042 6.88477 15.0533C6.93419 14.648 7.18627 14.4009 7.53225 14.4009Z" fill="#74829C"/>
        <path d="M33.7828 34.399H6.28183C5.9309 34.399 5.62939 34.0975 5.62939 33.7466C5.62939 33.3957 5.9309 33.0991 6.28183 33.0991H33.7828C34.1338 33.0991 34.4353 33.4006 34.4353 33.7466C34.4353 34.0975 34.1338 34.399 33.7828 34.399Z" fill="#3C3B3D"/>
        <path d="M7.53225 13.7486C7.18132 13.7486 6.88477 13.4471 6.88477 13.0962V6.25058C6.88477 5.89965 7.18627 5.59814 7.53225 5.59814C7.88318 5.59814 8.18469 5.89965 8.18469 6.25058V13.1505C8.18469 13.5015 7.88318 13.7486 7.53225 13.7486Z" fill="#65B2FE"/>
        <path d="M9.43531 8.74632C9.28703 8.74632 9.13382 8.6969 8.98554 8.54862V8.54862C8.18571 7.7488 6.88893 7.7488 6.08911 8.54862V8.54862C5.83704 8.80069 5.44162 8.80069 5.18955 8.54862C4.93747 8.29654 4.93747 7.89619 5.18955 7.64905L7.08754 5.75107C7.33962 5.49899 7.73998 5.49899 7.98711 5.75107L9.88508 7.64905C10.1372 7.90113 10.1372 8.30148 9.88508 8.54862C9.73185 8.6969 9.58359 8.74632 9.43531 8.74632Z" fill="#469BE0"/>
    </symbol>
</defs>
</svg>
